<?xml version="1.0" encoding="UTF-8"?>
<svg id="Layer_2" data-name="Layer 2" xmlns="http://www.w3.org/2000/svg" viewBox="0 0 881.02 885.76">
  <defs>
    <style>
      .cls-1 {
        fill: #404040;
      }

      .cls-2 {
        fill: #a3a3a3;
      }
    </style>
  </defs>
  <g id="Layer_1_copy" data-name="Layer 1 copy">
    <path id="shape" class="cls-2" d="M480.74,51.7c32.62-7.32,65.61-14.07,99.28-13.94,23-60.4,108.17-44.63,105.16,20.97,19.3,10.14,37.05,21.19,49.74,39.26,7.25,10.33,10.65,20.57,22.04,27.96,17.28,11.2,53.1,11.7,74.07,14.93,11.73,1.81,43.47,4.74,48.18,16.82,4.35,11.15-.44,49.97-2.98,63.05-21.22,109.17-124.91,68.21-190,122-24.74,20.44-42.99,55.03-54.28,84.72-2.75,7.25-9.62,25.02-10.17,31.88-.66,8.19,5.89,27.6,8.65,36.13,8.64,26.68,22.1,56.18,40.75,77.25,9.01,10.18,23.42,19.51,30.34,30.66,16.1,25.96,5.63,63.74-22.84,75.8-27.15,11.5-50.96-1.58-75.97-11.48-1.26,5.23-1.15,10.59-.96,15.95,35.48,5.67,68.77,19.79,99.94,37.04,8.79-33.95,30.07-81.94,73.79-68.28,15.91,4.97,21.21,19.33,22.26,34.74,1.72,25.21-.06,54.41-.08,80.08-.03,27.39,5.63,79.37-12.98,100.93-18.51,21.44-56.63,14.39-81.48,14.43-144.6.23-290.15,3.02-434.96,3.13-112.93.09-196.42-30.65-242.01-140.07-65.71-157.73.3-366.34,106.95-490.98,62.47-73.01,145.11-123.07,233.1-159.94,1.06-1.48-2.57-6.57-3.35-8.77-18.48-52.17,26.6-102.06,80.04-81.04,19.85,7.81,33.57,25.99,37.78,46.74Z"/>
    <path id="arms-inner" class="cls-1" d="M601.69,682.72c-4.51-.86-17.56-3.02-21.51-2.99-4.48.04-11.94,3.17-17.12,3.87-22.66,3.06-41.37-3.4-62.84-4.92-39.49-2.78-82.62,2.91-122.08.09-8.61-.62-6.27-4.16.51-5.59l54.03-7.45c-32.56-17.89-61.86-45.04-75.99-80.01,2.21-.53,2.21,1.28,3.19,2.3,23.92,24.78,38.28,42.7,69.5,60.5,41.2,23.48,157.69,62.02,176.8-3.79,10.95-37.7-20.95-54.66-40.9-80.11-29.67-37.85-45.48-82.98-49.6-130.89,2.61-.49,1.76.5,2.45,1.99,7.38,15.8,11.9,36.54,19.37,53.68,15.8,36.26,37.24,67.96,64.69,96.32,2.34.42,1.31-1.05,1.46-2.51,3.74-35.63,5.99-68.3,13.34-103.68,1.12-5.37,1.98-12.24,4.69-16.81.23,4.8,3.14,13.93,4.5,19,8.26,30.65,23.84,67.14,44.98,91.02,9.01,10.18,23.42,19.51,30.34,30.66,16.1,25.95,5.63,63.74-22.84,75.8-27.15,11.5-50.96-1.57-75.97-11.48l-1.01,15Z"/>
    <path id="right-ear" class="cls-1" d="M684.69,57.72c-32.56-15.19-68.08-20.65-104-20,20.78-60.17,108.04-44.48,104,20Z"/>
    <path id="nose" class="cls-1" d="M869.69,149.72c2.99.41,6.94,3.52,8.46,6.04,5.88,9.77,1.18,40.14-.46,51.96-13.45.44-25.53.88-36.48-8.02-16.16-13.14-18.46-46.91,7.08-49.87,4.91-.57,16.63-.76,21.39-.11Z"/>
    <path id="mouth" class="cls-1" d="M855.69,267.72c-3.69,4.72-5.23,6.79-10,11-18.34,1.07-35.48-1.26-51.88-9.62-4.18-2.13-12.26-5.75-12.15-10.88.28-12.78,17.96,1.63,24.05,3.98,16.17,6.24,32.92,5.77,49.98,5.52Z"/>
    <path id="left-ear-inner" class="cls-1" d="M413.43,34.96c15.54-2.64,29.51,4.94,37.46,18.07,2.32,3.84,7.6,13.16,3.2,16.59l-43.67,22.32c-5.88,1.79-7.42,1.23-11.13-3.31-13.68-16.71-9.97-49.58,14.15-53.67Z"/>
    <path class="cls-1" d="M715.33,131.37c2.98,8.79-18.64,30.31-42.44,31.09-18.81.61-38.93-11.74-38.5-21.03.18-3.95,4.07-7.01,6.85-8.31,9.02-4.21,15.42,11.85,27.82,11.67,13.9-.2,18.04-19.42,33.64-19.24,4.58.05,11.25,1.79,12.62,5.82Z"/>
  </g>
</svg>